/* XPM */
static char *d65af6a8b87d43d7b84445968848b50f[] = {
/* columns rows colors chars-per-pixel */
"32 32 119 2 ",
"   c #FFA800",
".  c #FFA900",
"X  c #FFAA00",
"o  c #FFAB00",
"O  c #FFAC00",
"+  c #FFAD00",
"@  c #FFAE00",
"#  c #FFAF00",
"$  c #FFB000",
"%  c #FFB100",
"&  c #FFB200",
"*  c #FFB300",
"=  c #FFB400",
"-  c #FFB500",
";  c #FFB600",
":  c #FFB700",
">  c #FFB800",
",  c #FFB900",
"<  c #FFBA00",
"1  c #FFBB00",
"2  c #FFBC00",
"3  c #FFBD00",
"4  c #FFBE00",
"5  c #FFBF00",
"6  c #FFC000",
"7  c #FFC100",
"8  c #FFC200",
"9  c #FFC300",
"0  c #FFC201",
"q  c #FFC301",
"w  c #FFC302",
"e  c #FFC400",
"r  c #FFC500",
"t  c #FFC401",
"y  c #FFC600",
"u  c #FFC700",
"i  c #FFC800",
"p  c #FFC900",
"a  c #FFCA00",
"s  c #FFCB00",
"d  c #FFCC00",
"f  c #FFCD00",
"g  c #FFCE00",
"h  c #FFCF00",
"j  c #FFCA0A",
"k  c #FFCD0F",
"l  c #FFD000",
"z  c #FFD100",
"x  c #FFD200",
"c  c #FFD300",
"v  c #FFD400",
"b  c #FFD500",
"n  c #FFD600",
"m  c gold",
"M  c #FFD800",
"N  c #FFD900",
"B  c #FFDA00",
"V  c #FFDB00",
"C  c #FFDC00",
"Z  c #FFDD00",
"A  c #FFDE00",
"S  c #FFDF00",
"D  c #FFCE17",
"F  c #FFC118",
"G  c #FFC518",
"H  c #FFC71E",
"J  c #FFE000",
"K  c #FFE100",
"L  c #FFE300",
"P  c #FFE400",
"I  c #FFC832",
"U  c #FFD83F",
"Y  c #FFD34C",
"T  c #FFDC4B",
"R  c #FFDB57",
"E  c #FFDF5A",
"W  c #FFD663",
"Q  c #FFDB70",
"!  c #FFDE71",
"~  c #FFE26F",
"^  c #FFE371",
"/  c #FFE178",
"(  c #FFE180",
")  c #FFE481",
"_  c #FFE38B",
"`  c #FFE88D",
"'  c #FFE98F",
"]  c #FFE593",
"[  c #FFEC92",
"{  c #FFEE9D",
"}  c #FFE9A0",
"|  c #FFEFA9",
" . c #FFEFB9",
".. c #FFF0B2",
"X. c #FFF1B4",
"o. c #FFF0B5",
"O. c #FFF2BF",
"+. c #FFF0C0",
"@. c #FFF2C2",
"#. c #FFF3C5",
"$. c #FFF4C7",
"%. c #FFF0C9",
"&. c #FFF2C9",
"*. c #FFF1CB",
"=. c #FFF2CC",
"-. c #FFF3CC",
";. c #FFF6CF",
":. c #FFF7D3",
">. c #FFF7D6",
",. c #FFF5DA",
"<. c #FFF9E0",
"1. c #FFF8E3",
"2. c #FFFBE9",
"3. c #FFFCEB",
"4. c #FFFAEF",
"5. c #FFFFFA",
"6. c #FFFFFE",
"7. c gray100",
"8. c None",
/* pixels */
"8.8.8.8.8.8.8.8.8.8.8.8.M S S S M S S M 8.8.8.8.8.8.8.8.8.8.8.8.",
"8.8.8.8.8.8.8.8.8.M S M M M M S S M M S S M S 8.8.8.8.8.8.8.8.8.",
"8.8.8.8.8.8.8.8.S b M S J S S S S S J J S M M M 8.8.8.8.8.8.8.8.",
"8.8.8.8.8.8.S b b M S M b l l d d l b b S J S S M J 8.8.8.8.8.8.",
"8.8.8.8.8.S b M S b l d s d d d d d d d d b M J M S P 8.8.8.8.8.",
"8.8.8.8.J b b M l s e d l b M M M M b b d s d b S M S P 8.8.8.8.",
"8.8.8.M b b M l e s l b M M M M M M S M M l d s b J l s l 8.8.8.",
"8.8.8.M l M d e s l M M M b b b M b b M M S b l d s s s l 8.8.8.",
"8.8.b l M d e s l M b b l b M b b b b M b M M M e % 8 d s s 8.8.",
"8.s b l l 8 e d b l b b b b b b b b M b b b S b 4 1 : s s d 8 8.",
"8.l l b s 4 s b b l l b b b b l b b b b M M l s s 8 : 4 d s s 8.",
"8.l l l 8 8 d b l b l l l b l b l b l b M l e e d e 1 1 s s s 8.",
"b d l d 8 e l l l l d d d d d d d d d M s 4 s s e s 4 : 8 s e d ",
"d d l e 1 s l l l d U @.o.T { #.$.| [ e Q ( 8 e s s 8 : 4 s d e ",
"d d d 8 1 e d l d e ` 4.=.:.Y 5. .~ 6.F &.=.1 s e s 8 % 1 s s e ",
"d s l 8 1 s l d d e ^ 1.&.o.1 O.E e 6.4.6.] 1 e e s 8 % 1 s s e ",
"s s s 8 1 e d s d 8 ` ,.! 6.j >./ H 6.I =.+.1 e e d 8 % 1 e e s ",
"e s s 4 1 s d s d e R 2.1.) 8 o.W G ;.: _ } 4 e e s 8 % 1 s e e ",
"e d s 8 : 4 d s d d e k D e s e e e 8 e e 8 e e e e 4 % 4 s s 8 ",
"s s s 8 : 1 s s s s s 8 s d e 8 e e e e e e e e e s 1 # 4 e 8 s ",
"8.s e e 1 % 8 d e s e s s 8 e e e e e e e e e e s 4 # : 8 e e 8.",
"8.e e s 8 % : s s e s s e 8 8 e e e e e e 8 e 8 e : # 1 e e e 8.",
"8.8 s e e 1 # 1 d e e 8 8 8 8 8 e e e 8 e 8 8 s 1 # : 8 e e 8 8.",
"8.8.8 8 e 8 % # 8 d 8 8 8 8 8 8 8 8 8 8 8 8 s 1 X # 8 e 8 e 8.8.",
"8.8.8.b 4 e 4 % # : 8 e 8 8 8 8 8 8 8 8 e e : X # 1 e 4 b 8.8.8.",
"8.8.8.e e 8 e 4 % X % 1 8 s e e e e e e 4 % X # 1 e 8 e e 8.8.8.",
"8.8.8.8.l 4 8 e 4 % X   # % 1 1 4 1 % % X X : 1 e 8 4 l 8.8.8.8.",
"8.8.8.8.8.s 8 4 8 8 1 : #           X X : 1 8 e 4 8 s 8.8.8.8.8.",
"8.8.8.8.8.8.8 e 8 8 8 8 4 1 : : : : 1 1 4 e 8 4 e 8 8.8.8.8.8.8.",
"8.8.8.8.8.8.8.8.1 8 4 4 4 8 8 8 4 8 8 8 8 8 4 4 8.8.8.8.8.8.8.8.",
"8.8.8.8.8.8.8.8.8.e 4 4 4 4 4 4 4 8 4 1 4 4 e 8.8.8.8.8.8.8.8.8.",
"8.8.8.8.8.8.8.8.8.8.8.8.8 8 4 4 4 4 8 8 8.8.8.8.8.8.8.8.8.8.8.8."
};
