/* XPM */
static char *_52d9587724b4417ff4f7a0db60682e3[] = {
/* columns rows colors chars-per-pixel */
"128 128 60 1 ",
"  c #FFA600",
". c #FFAD00",
"X c #FFB400",
"o c #FFBD00",
"O c #FFC300",
"+ c #FFCB00",
"@ c #FFC609",
"# c #FFCA0D",
"$ c #FFD400",
"% c #FFDA00",
"& c #FFD30C",
"* c #FFC813",
"= c #FFCC1B",
"- c #FFD414",
"; c #FFD418",
": c #FFE100",
"> c #FFCF24",
", c #FFD423",
"< c #FFD32C",
"1 c #FFD335",
"2 c #FFD934",
"3 c #FFDB3B",
"4 c #FFD542",
"5 c #FFDB43",
"6 c #FFD74A",
"7 c #FFDD4A",
"8 c #FFD755",
"9 c #FFDA55",
"0 c #FFDC5D",
"q c #FFE051",
"w c #FFE25F",
"e c #FFDB60",
"r c #FFDE6B",
"t c #FFE464",
"y c #FFE36D",
"u c #FFE174",
"i c #FFE67F",
"p c #FFE983",
"a c #FFE68A",
"s c #FFE88A",
"d c #FFE796",
"f c #FFEA96",
"g c #FFEC9D",
"h c #FFEDA2",
"j c #FFEBA9",
"k c #FFF0AC",
"l c #FFEEB4",
"z c #FFF2B6",
"x c #FFF2BC",
"c c #FFF3C3",
"v c #FFF5CC",
"b c #FFF6D4",
"n c #FFF9D7",
"m c #FFF6D9",
"M c #FFF9DD",
"N c #FFFAE1",
"B c #FFFBEA",
"V c #FFFDF5",
"C c #FFFFFF",
"Z c None",
/* pixels */
"ZZZZZZZZZZZZZZZZZZZZZZZZZZZZZZZZZZZZZZZZZZZZZZZZZZZZZZZZZZZZ:%::%%:%ZZZZZZZZZZZZZZZZZZZZZZZZZZZZZZZZZZZZZZZZZZZZZZZZZZZZZZZZZZZZ",
"ZZZZZZZZZZZZZZZZZZZZZZZZZZZZZZZZZZZZZZZZZZZZZZZZZZZZ%::%%%%%%:%%%::%%%%%::%:ZZZZZZZZZZZZZZZZZZZZZZZZZZZZZZZZZZZZZZZZZZZZZZZZZZZZ",
"ZZZZZZZZZZZZZZZZZZZZZZZZZZZZZZZZZZZZZZZZZZZZZZZZ:%%%%%%%%%%%%:%:%%%%:%:%%%%%:%%:ZZZZZZZZZZZZZZZZZZZZZZZZZZZZZZZZZZZZZZZZZZZZZZZZ",
"ZZZZZZZZZZZZZZZZZZZZZZZZZZZZZZZZZZZZZZZZZZZZ$$%%%%%%%%:%:%%:%%%%::%%%%%%%::%%%%%%%%%ZZZZZZZZZZZZZZZZZZZZZZZZZZZZZZZZZZZZZZZZZZZZ",
"ZZZZZZZZZZZZZZZZZZZZZZZZZZZZZZZZZZZZZZZZZZ%$%%%%%%%%%%%%%:%%%:%:%%%:%%%:%%%%%%%%:%%%%:ZZZZZZZZZZZZZZZZZZZZZZZZZZZZZZZZZZZZZZZZZZ",
"ZZZZZZZZZZZZZZZZZZZZZZZZZZZZZZZZZZZZZZZ$%%%%%%%%%%%%%%%%%%%%%%%%%%%%:%%%:%:%%:%:%%%%%%%:%ZZZZZZZZZZZZZZZZZZZZZZZZZZZZZZZZZZZZZZZ",
"ZZZZZZZZZZZZZZZZZZZZZZZZZZZZZZZZZZZZZ$%%%%%%%%%%%%%%%:%%:%%%%%%%:%%%%:%:%%%:%:%:%:%%%%%%%%%ZZZZZZZZZZZZZZZZZZZZZZZZZZZZZZZZZZZZZ",
"ZZZZZZZZZZZZZZZZZZZZZZZZZZZZZZZZZZZ%$%%%%%%%%%%%%%%%%%%%%%%%%%%%%%%:%%%%%%%%%%%%%:%:%%%%%%%%%ZZZZZZZZZZZZZZZZZZZZZZZZZZZZZZZZZZZ",
"ZZZZZZZZZZZZZZZZZZZZZZZZZZZZZZZZZ:%$%%$%$%%%%%$%%%%%%%%%%%%%%%%%%:%:%:%%%:%%%%%%%%%%%%%:%%%%%%%ZZZZZZZZZZZZZZZZZZZZZZZZZZZZZZZZZ",
"ZZZZZZZZZZZZZZZZZZZZZZZZZZZZZZZ$$%%%%%%%%%%%%%%%%%%%%%%%%%%%%%:%%%%%%%%:%%:%%::%:%%:%:%%%:%:%%%%%ZZZZZZZZZZZZZZZZZZZZZZZZZZZZZZZ",
"ZZZZZZZZZZZZZZZZZZZZZZZZZZZZZZ%%%%%%%$%%%%%%%%%%%%%%%%%%%%%%%%%%%%%%%%%%%%:%%%%%%%%%%%%%%:%%%:%%%%ZZZZZZZZZZZZZZZZZZZZZZZZZZZZZZ",
"ZZZZZZZZZZZZZZZZZZZZZZZZZZZZ:$$%%%$%%%%%$%%$%%%%%%%%%%%%%%%%%%%%%%%%:%%%%%%%%%%:%%:%%:%:%%:%%%:%%%%%ZZZZZZZZZZZZZZZZZZZZZZZZZZZZ",
"ZZZZZZZZZZZZZZZZZZZZZZZZZZZ:%%%%%$%%%%%%%$%%$%%%%%%%%%%%:%%%%%%%%%%:%%%::%%%:%%:%%%:%:%%%%%%%%%%:%%:%ZZZZZZZZZZZZZZZZZZZZZZZZZZZ",
"ZZZZZZZZZZZZZZZZZZZZZZZZZ:$$%$%$%%%$$%$%%%%$%%%%%%%%%%%$$$$+++++++$++$$$%%%%%%%%:%%%%%%::%%::%:%%%%%%%:ZZZZZZZZZZZZZZZZZZZZZZZZZ",
"ZZZZZZZZZZZZZZZZZZZZZZZZ%%%%%%%$%$%$%%%$%$%%%%%%%%%$++++++O++++++++++OO++++$$%%:%%%%%%%%%%%%%%%%%%%:%%:%ZZZZZZZZZZZZZZZZZZZZZZZZ",
"ZZZZZZZZZZZZZZZZZZZZZZZ%$$$%$$%%%$%%$%%%$%%$%%%$++++++O++++$+$++$+++$++++++O+++$%%%:%%%%%%%:%%:%:%%%%%%%:ZZZZZZZZZZZZZZZZZZZZZZZ",
"ZZZZZZZZZZZZZZZZZZZZZZ$$%$$%$%$%$%%%$$%%$%%%$$++O+++++++$+++$+$$+$$+$$+$$+++++++++$$%%%%%%%%%%%::%%:%:%:%%ZZZZZZZZZZZZZZZZZZZZZZ",
"ZZZZZZZZZZZZZZZZZZZZZ%$%$%%$%%%$%%$%$%$%%%$+++O+++++$+$$+$$$$$+++$$+$+$$+$$$$+++++++$$%:%%%:%%%%%%%%%%%%%%%ZZZZZZZZZZZZZZZZZZZZZ",
"ZZZZZZZZZZZZZZZZZZZZ%$$%%$$%%$$%%$%%%$%%$++O++++$++$$+$+$+$++$$$$$+$$$+$+$$$$$$$$+$+++$%%%%%%%%%%%%%%%%%%:%:ZZZZZZZZZZZZZZZZZZZZ",
"ZZZZZZZZZZZZZZZZZZZ$$%%$$%%$$$%%$%$$%%%++O++++$++$$+$$$$$$$+$++++$+$+$$+$$+$$++$+$+$++O+$%%%%%%:%%%%:%%%%%:%%ZZZZZZZZZZZZZZZZZZZ",
"ZZZZZZZZZZZZZZZZZZ$$%$%$%$$%%%%%%$%%%$OO++$++$+$$+$+$$+++++$$$+$$$$$$$+$+$+$$$$$$$$$$+++++$%%%%%%%%%%:%:%%%%%%ZZZZZZZZZZZZZZZZZZ",
"ZZZZZZZZZZZZZZZZZ$$%%$$%$%$$$$$$$%%$OO++++++$+$$+$$++++$$$$%$%%%%%$$$$$$$$$+++$$$+$+$$$$++++%%:%%:%%%%%%%::%%%+ZZZZZZZZZZZZZZZZZ",
"ZZZZZZZZZZZZZZZZ$$%$$$$%%$$%$$$%%$++O++$++$$+++++++$$$$%%%%%%%%%%%%%%%%%%%%$$$++++$$$$+$$++++$%%%%%%%%%%%%%%%+++ZZZZZZZZZZZZZZZZ",
"ZZZZZZZZZZZZZZZ$$$$$%$$$%$$$%%$%$+OO++++$+++++++$$$%%%%%$%$%$%$%%$%$%$%%$%%%%$$$+$+$+$$+$+$++O+%%%%%%%%%%%:%$++++ZZZZZZZZZZZZZZZ",
"ZZZZZZZZZZZZZZ%$$$$$$$%$$$$$%$%$OO+++++$+$++++$$%$$%$%$%%$%$%%%$$$%%%%%%%%$%%%%%%$$++$$$+$$+++++%%%%%%%%%%%+++$++:ZZZZZZZZZZZZZZ",
"ZZZZZZZZZZZZZ+%$$$%$$$$$$%%$$%+OOO++++++++++$$$%%$%$%$$%%$$%%$%$%%%$$%$%$%%%%%$%%%%$$++$$+$$$++++$%%%%%%%%$+++++$+%ZZZZZZZZZZZZZ",
"ZZZZZZZZZZZZZ$$$$%$$$$$%$$$$%+OO+++++$++++$$%%$%$%$%$%$%%%$%$$%%$%%$$%%%%%%$%$%%%%%%%$++$+$++$++++$%%%%%%$+$++$++++ZZZZZZZZZZZZZ",
"ZZZZZZZZZZZZ+$$%$$%$$%$$%$%%+O+++$+++++++$%%$$%$%$%$%$%$$$%%%%%$%%$%%$%$$$%%%$%$%$%%%%%$+$+$$$$$+++$%%%%+++++++++++OZZZZZZZZZZZZ",
"ZZZZZZZZZZZ$$$$$$$%$$$%$$%%+OO+++++++O+$%$%$%$%%%$%$$$$%$%$$$%$%%$$%%$%%%$%%$%%%$%%%%%%%$$+$$+$++$++$%%$+++++$+++++++ZZZZZZZZZZZ",
"ZZZZZZZZZZZ$$$$$$$$$$$$$$$+OO+O+++++++$%%$%$$$$$$%$$$%%$$%$%%$%%%$%%$%$%%%$%$%%%$%$%$$%%%$$++$$$$+++O$$++++++++++++++ZZZZZZZZZZZ",
"ZZZZZZZZZZ$$$$$$$$$$$$$$$$OOO++++++++$$$$$$$$%$%$$$%$%$$$%$%$$%$$$%$%$%$$$%$%%$$%%$$%%$$%%$$++$+$++++oo++++++++++++++OZZZZZZZZZZ",
"ZZZZZZZZZ$$$$$$$$$$$$$$$$OOO++++++O+%$%$$%$$$%$$$%$%$$%$$%$$$%$$%$$%$%$%$%$%$%$%$%%%%$%%$%%%$++$+$$$OXXO+++++++++++++++ZZZZZZZZZ",
"ZZZZZZZZZ$$$$$$$$$$$$$%$OO++++++O++%$$$$%$%$$$%$$$%%$$$%$%$%$$%%$%%$$%$%%$$%%$$%$%%$$%%%%$$%%$++$$$Ooo.X++++++++++++++OZZZZZZZZZ",
"ZZZZZZZZ%$$$$$$$$$+$$$$OOOO++++OO+$$$$$$$$$$$$$$%$$$%$$%$$$$%$$$%$$$%$%$$%%$%%$$%%$%%%$$%%%$%%$+$++oooo.o++++++++++++++$ZZZZZZZZ",
"ZZZZZZZZ$$++$$$$$$$$$$+OO++++++O+$$$$$$$$$$$$%$$$$%$$$$$%$$%%$$%$$$%$$%$$%%$$$$%$$%$$%$%$%$%%%%$+OooooooXO++++++++++++++ZZZZZZZZ",
"ZZZZZZZ+$$$$+$$+$+$$$+OOOO+O+OO+%$$$$$$$$$%$$$$$$$$$$$$$$$$$$$$$$$$$$%$$$$$%$$$%$%$%$$%$%$%$$$%%+XooooooX.++++++O++++++OOZZZZZZZ",
"ZZZZZZZ$$$$$$$$+$$+$$OOO+++O+O+$$$$$$$$$$$$$$$$$$$$$%$$$$$$$$%$$$$$$$%$%%%$$$$$$%%$$%$$%$%$$$%%$+OXooOooo.o+++++++O++++++ZZZZZZZ",
"ZZZZZZ%++$+$$+$$$$$$+oOO+O++O+$$$$$$+$$$$$$$$$$$$$$$$$$$$$$%$$$$$%$%$$$$$$%$$%%$$$$%$$%$%$%%$%$O++oooooooX.O+++O++++++O+O$ZZZZZZ",
"ZZZZZZ%$$++$$$$$$+$$oOO+OO+OO$$$$$$+$$$$$$$$$$$$$$$$$$$$$$%$%$$$$%$$$%%$$%$%%$%$$%$$$%$$$%$%%$+OO++oooooooXXO+++O++++O+++$ZZZZZZ",
"ZZZZZ:+$$$$$+$+$$$$OOO+++OOO+$$$$$$$$$+$$$$$$$$$$$$$$$$$$$$$$$$$$$$$$$$$$$$$$$$%%$$%$$%%$$%$+++++++OXooOoooXo+++++O++++++O%ZZZZZ",
"ZZZZZ$+$$++$$$$+$$+OOO+O+OO+$$$$$$$$$$+$$$$$$$$$$$$$$%$$$$$$$$$$$%$$%%$$$$$%$$$$$$$%$$$$$%%$++O+++++OooooooXXO$++O++++++++OZZZZZ",
"ZZZZZ$$$$$$$$+$$$$+oOO++OOO+$$+$+$$$$$$$$$$$$$$$$$$$$$$$$%$$$$$$$$$$$$$$%$$$%$$%$%$%$%$%$%$OO+++++++OoooOoooXo++++++O++O+O+ZZZZZ",
"ZZZZ+$+$+$$+$++$$+OOOOOOOO+$$+$$$$$$+$$$$$$$$$$$$$$$$$$$$$$$$%$$$$$$$$%$$$$$$$%$$%$$$$$%%$+O++++O++++OooooooXXO++++O++++++O$ZZZZ",
"ZZZZO$$+$++$$$$+$OoO+++OOO$$$$+$+$+$$$$$$$$+$$+$+$$$$$$$$$$$$$$$$$$$$$%$%$$$$$$$$$$$%$$%$+O+++O++++O+OoooooooXo++O++++O+++++ZZZZ",
"ZZZ$$+$$$++$+$+$+OoOOOOOO+$+$$$$$$$++$$$$$$$+$$$$$$$$$+$$$$$$$$$$$$$$$$$$$$$$$$$$%$$$$$$++++O+O++O+O++OXooooo.oO++O+O++++OO+$ZZZ",
"ZZZ$+$+$+$$+$++$OoOO++OOO$$$+$$++$$$$$$+$$+$$$$++$$+$$$$$$$$$$$$$$$$$$$$$$$$$$$$$$$$$%$+O++O++++++++O+Oooooooo.o++O++++O+++++ZZZ",
"ZZZ$++++$+$$+$$$OoOOOOOo+$+$$+$+$$+$$+$$+$$++$$$$$$$$+$$$$$$+$$$$$$$$$$%$$%$$$$$$$$$$$+O+O+O+OO+OO+O+++OXooooo.oO++++O+++OO++ZZZ",
"ZZZ$$+$$+$+$+$++OOOO+OOO+$+$+$$$+$+$$$+$+$$$$$$+$$+$$$+$$$+$$$$$$$$$$$$$$$$$$$$$$$$$$++++O+++++O+++++O++ooooooo.O++++O+O++++$ZZZ",
"ZZ$++$+$$+++$+$OoOO+OOOO+$++$$$$$$$+$$+$+$$$$$$$$+$$+$$+$$$+$$$$$$$$$$$$+$$$$$$$$$$$++++O+O++O+++O+O+O++oooOoooXo+O++O++++++O+ZZ",
"ZZ+$$++$+$$$+$+OoOOOOOO+$$$$$++$$+$$+$+$$$$+$+$$$$$$$$$$+$$$$$$$+$$$$$$$$$$$$$$$$$$+O+O++++++O+++++++++OOXoooooXo++++O+O+O+O+OZZ",
"ZZ+++++$$++$+++oOOOOOOo$$++$+$$+$$$++$$+$+$$+$++$$$+$$$$$$$$$$$$$$$$$$$$$$$$$$$$$$+O+++++OO+++++O++++O++OoooOooXXO+O+++OO++++OZZ",
"ZZ$+$$++++$+$$+oOOOOOOO+$$+++++$+++$$+$$+$+++$+$+++$+$$++$+++++++$++++$$+++$$$$$$+OOOOO++++OO+OO+OO+O++O+o.ooooXXo++OO+++OO+++ZZ",
"ZO$++++$+$+++$OoOOOOoo+$$+$$+$++$+$+++$++$++&&&&&$$++$$++$&&&&&&&&&&&$$+$2-$$$$$+OO<>OO+O+O+O+O+OO+O+O+++OXoooXX.o++O+O++OO+O+%Z",
"Z++++$+++$+$$+oooOOOOo+$+$++$+$++$+$$$$$$+$fMNMNNNbkq+++7bNNMNMMNMNNNx;$xCN3+$$+OOaVVuOOO++OO++O+++++O+O+OoXooooXXO+O++OO+++++%Z",
"Z$+++$$+++$+++OoOOOOoO++$+$+++$$$+$++$+$$+yCCCCCCCCCCg+&BCCCCCCCCCCCCCgyCCCc$++Oo1CCCC>O+O+++O++O+O+O++OO+oXXooXXX+++O+++++O++OZ",
"Z++$+++++$++$+ooOOOOoO+$+$+$+$+$$+++$+$+++jCCCCCCCCCCCt$CCCCCCCCCCCCCCcgCCCM&++OO0CCCC6OO++OO++O+++O++O+++oXooooo.O+O++OOOO+OO+Z",
"Z$++$++$+++$++oOOOOooO$$++$++$++++$++$++$+hCCCCCCCCCCCB$wCCCCCCCCCCCCN3iCCCb#OO+O9CCCC4oOO++OOO+O+++++O+O+Ooooooo.o+O+O++O++++OZ",
"Z++++++++++++OoooOOoo++++$$++$+$+$$+$++$++gCCCM536lCCCC3O,325nCCCz225-+fCCCb#O+OO9CCCC4O++OO++++OOOOOO+OO+O.XoXoX.o+++O+++OOOO+Z",
"Z++++++++++++OoooOoooO$++$+++++$$+++$+++++gCCCc+OO2CCCC7+++O+vCCCfO++++gCCCb@oOOo6CCCC4O+OO+O+OO+OO+O+O+++OXXooXo.X+O+OOOOO++OOZ",
"Z++$+++$+++$+oooOOOoO+++++++$+++++$+++$+++gCCCv+++sCCCC,++$+$vCCCg$++$+fCCCb#OOOo8CCCC4oO++O+O++O++O+O+OO+OXoXooo.oO+O+OO++OOO+Z",
"+++++++++++$+oXOoOooo++++++++++++++$++$+++gCCCVnvMCCCCh+++$++vCCCh+$$++fCCCCbvvbvNCCCC4O++OO+O+O+O+OOO+OO+Oo.oooX.o++OO+O+O++O+O",
"+++++++++++++ooOOoOXO+$$+$$++$$++$+$+$+$++gCCCCCCCCCCC5O+$++&vCCCh++$++fCCCCCCCCCCCCCC4oOOO+OO+OO+OOO+O+O++XXXooo.X++O+OOO+OO+O+",
"++++++++$++++ooooOooo+++++$+++++++++++++++gCCCCCCCCCCCc&+$++&vCCCh+$$++dCCCCCCCCCCCCCC4OO+O+O+++O+O++OO+O+OXXooooXX++O+O+O+O+O+O",
"+++++++++++$+OooOoooO++++++++$++$++++$+$++hCCCCCCVCCCCCp++$++vCCCh++++OdCCCCCCCCCCCCCC4OOO+OO+OO+OO+OO+O+O+oXooXoX.O+OO+O++OO+O+",
"+O+++++++++++ooOoOoXO+$+$+++$++$+$+$++++++gCCCb<,,9BCCCv++$+$vCCCg+$+OOfCCCNr8ee8dCCCC4OOO+OO+O+OOOO+O+OO++o.ooooXoO+O++OOO+OO+O",
"+++++++++++++ooooOOoO++++++$++++++++$+$$++gCCCv+O+OsCCCN;+$+&vCCCh++OOOfCCCvOoOoo4CCCC4o+OO+O++OO+++O+O+O+Oo.oXoX.XO+O+OO++OO+O+",
"+++++++++++++ooOOOooo+++++++++++++$++++++OgCCCvOOOOgCCCN;++++vCCCh+O+OOdCCCb#OOOO8CCCC4o+OO++O+O+O+OO++OO+OXXooXoXoO+OO++O+++O+O",
"+++++++O++O++oXooooooO++++++++++$+++++++++gCCCMywwsVCCCv+++O&vCCChOOOOodCCCb*O+Oo8CCCC4oOOOOOOOOO+OOO+OOO+OoXoXoX.oOO+OOOOOOOOO+",
"ZO++++O+++O++ooooooooO++++++++++++++++++++hCCCCCCCCCCCCpO+++&vCCChOOOOOdCCCm#oOOo0CCCC4oOOOO+OO+OOOOOOO+O+OXXXXoX.XO+OOO+OOOOOOZ",
"Z++++++++++++oooOoooo++++++++++++++++++$+OhCCCCCCCCCCCM#+++++MCCCjOOOOOhCCCM#oOOo8CCCC4oO+O++O+OO+O++OOOO+O.XooooXX+OO+OOO++O+OZ",
"Z++OO+++O++O+OXoooooXO+++++++++++++++++++O0CCCCCCCCCCv>+++++OkCCCuoOOOOrCCClOO+OO<CCCV=O+OOOOOOO+OOOO+OOO+OXXooXX.o+++O+OOOOO++Z",
"Z+++++O++++++OXooooooO++++++++O+++++++$++++uccxccczh9+++$++$+>cBh@OO+OO@dBc>OO+OOOrMm9OOO+O++OO+O++OOOO+O+o.XooXo.OOOOOOO++OOOOZ",
"ZOO++O+++O+++Ooooooo.o+++++++++++++++++++++O+++O++OO+++++++++OO=OO+OOOOOO=OO+OO+OOO*#oO+O+OOO+OOOOOO+OO+OOo.oXooo.O+OO+OOOOO+OOZ",
"ZO+OO++O+OO++OXoooooXo++O++O++++++++O+++O++++O+++O+O+++++$$+OOOOOOOO++OOOoOOOOOOOOOOOOOOOOO+OOOOO+O+OOOOO+o.XoXX..OOOOOO+OOOOOOZ",
"Z%+++OO++++++OoooooooXO+++++O++++++++++++++++++++++++++++++OOO+OOOO+OOOOOOOOOOOOO+OOOOOO+OOOOO+OOOOOOO+OOO.XoXXX.oO+OOOOOOOOOO$Z",
"Z%+O++O+O+OO++oXoooooXO++O+O+++OO+++O+O+++++++++++++++++++OOOOOOOOOOOOO+OO+O+OO+OOO+OOO+OOOOO+OOOO+O+OOO+O.X.ooo.oOO+O+OOO+OO+%Z",
"ZZ+OO+O++O++O+OoXoooo.o++++++++++++++++O+++++O++++++++++++OOO+OOOOOOOOOOOOO+O+OOO+OOOOOOOO+OOOOOOOOOO+OO+o.oooXX.oOOOO+OOOOOO+ZZ",
"ZZO++OO+O+O+++O.ooooo.o++O+O+O++++++++++++O+++++++++++++OOOOOOOO+OO+O++OOOOOOOOOOOOOOO+OOOOO+O+OO+O+OOO+O..XXXoX.O+OOOOOOOOOOOZZ",
"ZZOO+++OO+O+O++oXooooX.O+++OO+O+O++O++++++++++++++++++++OOOOOOOOO+OOOOOOO+OOOOOO+OO++O+OOOOOOOOOOOOOOO+OO.oXoXXXoOOOO+OO+OO+OoZZ",
"ZZ+OOOO++O++O++o.oooooXo++O++O+++O++O++O++O+O+++O+++++OOOO+OO++OOOOOOO+OOO+OOO+OOOOOOOOOOOO++OOOOOOOOOO+X.XoXoX.o+OOO+OOOOOOO+ZZ",
"ZZZ++OOOO++O+++OXXoooX.X++O++O+++O++++++O+++++OO+++++OOOOOO+OOOOOOOOOOOOOOOOOOOO+OOO+OOOOOOOOOOOOOOOOOOO..XXoXo.oOOOOOOOOOOO+ZZZ",
"ZZZ+OO+++OO+OO+OoooooXo.o+O++O+OO++O+OO++++O++++O+O++OOOOOOO+OOOOOO++OOOOOO+OOOOOOOOOOOOOOO+OOO+O+OOOO+o..ooXo.XOOOOOOOOO+OO+ZZZ",
"ZZZ+O+OOOOOO++O+O.ooooXXXO+O+++O+O+OO++OOO++O+++O++OOOOOOOOOOOOOOOOOOOOOOOOOOO+OOOOOOOOOOOOOOOOOOOOOOOO.XXoXoX.o+OOOOOOOOOOO+ZZZ",
"ZZZ$OO++O+O+OOO+OXXXoXo..o++O+O+++O+++O+++O+++O+++OOOOOOOOOOOOOOOOOOOOOOOOOOOOOOOOOOOOOOOO+OOOOOOOOOO+o..oXXo..OOOOOOOOOOOOO+ZZZ",
"ZZZZO+OOOOOOOO+OOoXooXoX.XO+O+O+O+O+O++OO+O+++O++OOOOOOOOOOOOOOOOOOOOOOOOOOOOOOOOOOOOOOOOOOOOOOOOO+OOO..XXoXX.oOOOOOOOOOOOOOZZZZ",
"ZZZZ+OOOOO+OO+OO+OXooooXX.o++O+OO++OO++++O+OO+O+OOOOOOOOOOOOOOOOOOOO+OOOOOOOOOOOOOOOOOOOO+OOOOOOOOOOOo.XoXoXX.OOOOOOOOOOOOO+ZZZZ",
"ZZZZZOO++OO++O+OO+ooXoXoo.XO+O++++O++++OO+O++++OOOOOOOOOO+OOOOOOOOO+OOOOOOOOOOOOOOOOOOOOOOOOOOOOOOOOO..XXXXX.oOOO+OOO+OOOOOZZZZZ",
"ZZZZZOOOOOOOOO+OOOO.XooXo..o+OOOOO+OOOO+O+++O+OOOOOOOOOOOOOOOOOOOOOOOOOOOOOOOOOOOOO+OOOOOOOOOOOOOOO+X.XXoXoX.OOOOOOOOOOOOOOZZZZZ",
"ZZZZZ$OO+O+OO+OOOO+o.ooooXX.o++O+OO+O++O++O++OOOOOoOOOOOOOOOOOOOOOOOOOOOOOoOOOOOOOOOOOOOOOOOOOOOOO+o .oXXo..oOOOOOOOOOOOOO$ZZZZZ",
"ZZZZZZ+OOOOOOOOO+OOOXXoXXoo..O+OO+OO+OO+OOO+OOOOOOOOOOOoOOOOoOOOOOOOOOOOOOOOOOOOOOOOOOOOOOOOoOOOO+O....oXoX.O+OOOoOOOOoOO+ZZZZZZ",
"ZZZZZZ+OOOOOOOO+OOOOo.oooXX...O+OO+OOOOO+++OOoOOOOOOoOOOOOOOOOOOOOOOOOOOOOOooOoOOOOOOoOOOooOOOOOOO...Xo.XX.oOOOOOOOOOOOOO+ZZZZZZ",
"ZZZZZZZoOOOOOOOOOO++Oo.ooXoXX.X+O+OO+O+OOOOOOOOOOOOoOOOOOOOOOOOOOOoOoOOOOOOOOOOOOOOOOOOOOOOOOOOOOX .XXoXX.XOOOOOOOOOoOOOOZZZZZZZ",
"ZZZZZZZOOOOOOOOO+OOOOOXXXoXXX..o++O+OO+OOOOOOOOoOOOOOOOOOOOOOOOOOOOOOoOOOOOOOOOOOoOOOOOOOOOOOOO+o .XXoXX..OOOOOOOoOOOoOOoZZZZZZZ",
"ZZZZZZZZOOOOOOOOOOOOO+o.oXXoXX..o++OO+O+OOoOOOOOOOOOOoOOOoOOOOOoOOOOOOOOOOOOOOOOOOOOOOOoOOOOOO+o .XXXXXX.oOOOOOOOOOOOOOOZZZZZZZZ",
"ZZZZZZZZ+OOOOOOOOOOOOOOoXXoXoXX. o+OOOOOOOOOOOOOOOOOOOOooOOoOooOoOOOOOOOOOOOoOOOOOOooOOOOOoOOOo ..XXXoX.XOOOoOOOOOoOOOO+ZZZZZZZZ",
"ZZZZZZZZZoOOOOOOOOOOOOOOXXXoXoXX. X++OOOOOOOooOOoOoOOoOOOOOOOOOOOOoOoOOooOOoOOoOOoOOOOoOoOOOOX  .XXXXX..OOOoOOOoOoOOOooZZZZZZZZZ",
"ZZZZZZZZZOOOOOOOOOOoOOOOo.XoXXoXX. oOOOOOOOooOOOoOOOoOoOOoOOOOOOOOoOoOoOOOoOOOOOOOOOOOOOOOO+o ..XoXXX..OOOOoOOOoOOOoOOOZZZZZZZZZ",
"ZZZZZZZZZZ+OOooOOOOOOoOOOo.XoXoXX....OOOOoOOOOOOoOOoOOoOOOOooOoOoOOOOOOOooOOOOooOoOooOoOOOO. ..XX.XX..oOOoOOOOOOOoOOO+ZZZZZZZZZZ",
"ZZZZZZZZZZZoOOoOOOOOOOOOOOo.XXXooXX. .OOOOOoOOOoOOOOOoOOoOOoOoOOOOOoOOoOOOOOoOOOoOOOOOOOOo.  ..XXXXo.X+OoOoOoOOOOoOooZZZZZZZZZZZ",
"ZZZZZZZZZZZOoOOOOOoOOOOoOOOo.XXXXoX..  oOOOOoOOOOOoOOOoOOOOOOOOooOOOOoOOOooOOOoOOOOOoOOOo  .XXo.XX..oOOOOOOOOoOoOOOOOZZZZZZZZZZZ",
"ZZZZZZZZZZZZXOOOoOOoOOOOOOOOo.XoXo....  .OOOOOOOoOOoOOOOoOOOoOOoOOOOoOOOOoOoOOOOOOoOOOO. ...XXXoX. oOOoOOoOOOoOoOOOXZZZZZZZZZZZZ",
"ZZZZZZZZZZZZZooOoOOOOoOOOOOOOo..XXXooX..  XOOOOOOOOOOoOoOOOoOOOOOoOoOOOoOOOOoOoOoOOOOX  ..XXXXXX..oOOOoOOoOoOOOOOoOZZZZZZZZZZZZZ",
"ZZZZZZZZZZZZZ$oOOoOOOoOOOOOOOOO..oXoX..X.. .oOOOOOOOOoOooOoOOoOOOOOOoOOOOOOOOOOOOOOX.  ...XXXXX..OOOOOOOOOoOoOOOoO+ZZZZZZZZZZZZZ",
"ZZZZZZZZZZZZZZ:OOOOOoOOOOOOOOOOO..X.XoXXX..   XOOOOOOOOOOOOOOOOoOOoOOOoOoOoOOOO+Oo.  .XXXXoXXX..oOOOooOOOOOoOOoOO%ZZZZZZZZZZZZZZ",
"ZZZZZZZZZZZZZZZoOoOOOOoOoOOOoOoOoX..XX.XX....   .XOOOOOOoOOooOoOoOoOoOoOOOOOOoo.   ...XXXXXX...OOoOOOOoOOoOooOOOOZZZZZZZZZZZZZZZ",
"ZZZZZZZZZZZZZZZZoOoOooOOoOOoOOOoOOo..Xo.XXXX...    .ooOOOOOOOOOOoOOOOOOOOOooX    ...XXXXXXX..oOOOOOooOOooOoOOoooZZZZZZZZZZZZZZZZ",
"ZZZZZZZZZZZZZZZZZoOoOOoOOOoOOoOoOoOoX..oo..XXX....    .XXoooOOOOOOoOOoo.X.    ....XXXXXXX...oOOOOoOoOoOOooOOoOoZZZZZZZZZZZZZZZZZ",
"ZZZZZZZZZZZZZZZZZZXOOoOooOOoOOoOOoOOOo...XXXXXXX.....       . .... .       ......XXXXXo...ooOOOooOoOoOooOOOoOoZZZZZZZZZZZZZZZZZZ",
"ZZZZZZZZZZZZZZZZZZZOOOOOoOoOooOOoOooOOO....oXXXXXX.X..... .  ..      . .......XXXXoXX...XoOOOOooOoOoOOOOOoOOoZZZZZZZZZZZZZZZZZZZ",
"ZZZZZZZZZZZZZZZZZZZZOoOoOoOOOOOoOoOOOoOOOX...XXXXXXXXX.XX..............XX.XXXXXXXX....XOOOOOooOOoOOoOooOoOo+ZZZZZZZZZZZZZZZZZZZZ",
"ZZZZZZZZZZZZZZZZZZZZZOOooOOoOOoOOOOOoOOOOOoo..X.XXoXXXXXXXXXXX..XXXXX.XXXXXXXXo.X...XoOOOoOOOooOOOoOoOOoOOoZZZZZZZZZZZZZZZZZZZZZ",
"ZZZZZZZZZZZZZZZZZZZZZZXOOoOoooOooOooOooOooOOooX......XX..X.XXXXX.X.XXoX.XX.XXX...XXOOOoOOooooOOooOOoOooOOXZZZZZZZZZZZZZZZZZZZZZZ",
"ZZZZZZZZZZZZZZZZZZZZZZZooOoOooOooOoOooOooOoOOoOooX.......oXXXXXXX.XX.X.X......XoooOOOOOoOOOooOoOOoOoOoOooZZZZZZZZZZZZZZZZZZZZZZZ",
"ZZZZZZZZZZZZZZZZZZZZZZZZ$ooOoOoOoOOooOoOOoOoOOoOOOoXoX...........X.....X.X.XoooOOOoooooOoooOOoOooOoOooo%ZZZZZZZZZZZZZZZZZZZZZZZZ",
"ZZZZZZZZZZZZZZZZZZZZZZZZZ%ooOoOooOOoOoOoOoOoOooOooOOOooooXX.XXX.X.o..oXXOooOoOOoOooOOoOoooOooOOOOoOoOo%ZZZZZZZZZZZZZZZZZZZZZZZZZ",
"ZZZZZZZZZZZZZZZZZZZZZZZZZZZOooOOOooOoOoOoOoOooOooOooOOOOOOOoOOoooooOOOOOOOOoOOoOoOoooOOoOOoOoOooOoooOZZZZZZZZZZZZZZZZZZZZZZZZZZZ",
"ZZZZZZZZZZZZZZZZZZZZZZZZZZZZOoOOOoOooOOOoOooOooOoOoOoOooOOOoOoOOOOOoOooOoOoOoOooooOOoOoOoOoOoOOoooo+ZZZZZZZZZZZZZZZZZZZZZZZZZZZZ",
"ZZZZZZZZZZZZZZZZZZZZZZZZZZZZZZ+ooooOOoooooOoOOOoOoooOOOoooOOOooOOooOoOOOOoOoOooOOoOoOoOoOoOoOoooO+ZZZZZZZZZZZZZZZZZZZZZZZZZZZZZZ",
"ZZZZZZZZZZZZZZZZZZZZZZZZZZZZZZZ+ooOooooOOoOOoOOOOoOooooOOooooOoooooooOooooOooOOooOoOoooooOoOoooo+ZZZZZZZZZZZZZZZZZZZZZZZZZZZZZZZ",
"ZZZZZZZZZZZZZZZZZZZZZZZZZZZZZZZZZOooOooOoOoooooooooOOoooooOooOoOoOOoOooooOoooooOOoooOoOooooooOOZZZZZZZZZZZZZZZZZZZZZZZZZZZZZZZZZ",
"ZZZZZZZZZZZZZZZZZZZZZZZZZZZZZZZZZZZOooooOooOoooooooOooOoOoooOoooOoOoOoOooOooOoOoOooooOOooOooOZZZZZZZZZZZZZZZZZZZZZZZZZZZZZZZZZZZ",
"ZZZZZZZZZZZZZZZZZZZZZZZZZZZZZZZZZZZZZ$OoooooooOooOooOoooooOoOoOooooOoooOOooooooOooOoOooooO+ZZZZZZZZZZZZZZZZZZZZZZZZZZZZZZZZZZZZZ",
"ZZZZZZZZZZZZZZZZZZZZZZZZZZZZZZZZZZZZZZZOoOoOOooOOOoooooOOooooooooOoooooooOoOOooOoOOoooOoOZZZZZZZZZZZZZZZZZZZZZZZZZZZZZZZZZZZZZZZ",
"ZZZZZZZZZZZZZZZZZZZZZZZZZZZZZZZZZZZZZZZZZZ+OoooOoooOOOoooOoooOoOooOooOoOooOoooooooooO+ZZZZZZZZZZZZZZZZZZZZZZZZZZZZZZZZZZZZZZZZZZ",
"ZZZZZZZZZZZZZZZZZZZZZZZZZZZZZZZZZZZZZZZZZZZZooOOoOOooOooooOOooooOOoooOooOoooooooOOooZZZZZZZZZZZZZZZZZZZZZZZZZZZZZZZZZZZZZZZZZZZZ",
"ZZZZZZZZZZZZZZZZZZZZZZZZZZZZZZZZZZZZZZZZZZZZZZZZ+.oOooOooOoooOoOooOooOOooOooOoo+ZZZZZZZZZZZZZZZZZZZZZZZZZZZZZZZZZZZZZZZZZZZZZZZZ",
"ZZZZZZZZZZZZZZZZZZZZZZZZZZZZZZZZZZZZZZZZZZZZZZZZZZZZooooooOoooOooooooooOoooOZZZZZZZZZZZZZZZZZZZZZZZZZZZZZZZZZZZZZZZZZZZZZZZZZZZZ",
"ZZZZZZZZZZZZZZZZZZZZZZZZZZZZZZZZZZZZZZZZZZZZZZZZZZZZZZZZZZZZoOooOOoOZZZZZZZZZZZZZZZZZZZZZZZZZZZZZZZZZZZZZZZZZZZZZZZZZZZZZZZZZZZZ"
};
