/* XPM */
static char *_a28b111372c4d3cf82c358d938b9b10[] = {
/* columns rows colors chars-per-pixel */
"16 16 78 1 ",
"  c #FFAB00",
". c #FFAC00",
"X c #FFAE00",
"o c #FFAF00",
"O c #FFB000",
"+ c #FFB100",
"@ c #FFB200",
"# c #FFB500",
"$ c #FFB600",
"% c #FFB700",
"& c #FFB900",
"* c #FFBA00",
"= c #FFBB00",
"- c #FFBD00",
"; c #FFBE00",
": c #FFBF00",
"> c #FFC000",
", c #FFC100",
"< c #FFC200",
"1 c #FFC300",
"2 c #FFC400",
"3 c #FFC500",
"4 c #FFC600",
"5 c #FFC700",
"6 c #FFC603",
"7 c #FFC800",
"8 c #FFC900",
"9 c #FFCA00",
"0 c #FFCB00",
"q c #FFCC00",
"w c #FFCD00",
"e c #FFCE00",
"r c #FFCF00",
"t c #FFC408",
"y c #FFC60B",
"u c #FFC40D",
"i c #FFC40F",
"p c #FFCD0F",
"a c #FFD000",
"s c #FFD100",
"d c #FFD200",
"f c #FFD300",
"g c #FFD400",
"h c #FFD500",
"j c #FFD600",
"k c gold",
"l c #FFD800",
"z c #FFD900",
"x c #FFDA00",
"c c #FFDB00",
"v c #FFDC00",
"b c #FFDD00",
"n c #FFDE00",
"m c #FFDF00",
"M c #FFCC11",
"N c #FFD41F",
"B c #FFE000",
"V c #FFE100",
"C c #FFE200",
"Z c #FFE400",
"A c #FFCC26",
"S c #FFDA4B",
"D c #FFDC53",
"F c #FFD958",
"G c #FFDF5B",
"H c #FFDB64",
"J c #FFE77C",
"K c #FFDF8A",
"L c #FFE192",
"P c #FFEBA6",
"I c #FFEBA8",
"U c #FFECB0",
"Y c #FFECCB",
"T c #FFF5C4",
"R c #FFF1D1",
"E c #FFF3D3",
"W c #FFF5E1",
"Q c None",
/* pixels */
"QQQQQmmmmmmQQQQQ",
"QQQxxxkffkxmVQQQ",
"QQmxf99frfrfVVQQ",
"Qxk92fxkxxfrfrfQ",
"Qf92kkkkkkmx%:fQ",
"xr<9k99r9ffr<*99",
"r9<frSDGJNAy9*<r",
"r<<r2EWUTRYi2*:9",
"r<:r2PIFHKLi9%:2",
"9<*99MM2t:<29%:9",
"92%:f2<<<<<9:o29",
"Q9<@29<<<<22 :9Q",
"Q22* *222<* %22Q",
"QQr2*oo@@oo:2rQQ",
"QQQ<<<*%%*<<<QQQ",
"QQQQQ:<<<<:QQQQQ"
};
