/* XPM */
static char *_9cc0f013c254fd9a67121955ac2a14a[] = {
/* columns rows colors chars-per-pixel */
"64 64 175 2 ",
"   c #FFA600",
".  c #FFA700",
"X  c #FFA800",
"o  c #FFA900",
"O  c #FFAA00",
"+  c #FFAB00",
"@  c #FFAC00",
"#  c #FFAD00",
"$  c #FFAE00",
"%  c #FFAF00",
"&  c #FFB000",
"*  c #FFB100",
"=  c #FFB200",
"-  c #FFB300",
";  c #FFB400",
":  c #FFB500",
">  c #FFB600",
",  c #FFB700",
"<  c #FFB800",
"1  c #FFB900",
"2  c #FFBA00",
"3  c #FFBB00",
"4  c #FFBC00",
"5  c #FFBD00",
"6  c #FFBE00",
"7  c #FFBF00",
"8  c #FFC000",
"9  c #FFC100",
"0  c #FFC200",
"q  c #FFC300",
"w  c #FFC400",
"e  c #FFC500",
"r  c #FFC600",
"t  c #FFC700",
"y  c #FFC605",
"u  c #FFC800",
"i  c #FFC900",
"p  c #FFCA00",
"a  c #FFCB00",
"s  c #FFCB01",
"d  c #FFCC00",
"f  c #FFCD00",
"g  c #FFCE00",
"h  c #FFCF00",
"j  c #FFC508",
"k  c #FFC708",
"l  c #FFC609",
"z  c #FFC80E",
"x  c #FFC80F",
"c  c #FFD000",
"v  c #FFD100",
"b  c #FFD200",
"n  c #FFD300",
"m  c #FFD400",
"M  c #FFD500",
"N  c #FFD600",
"B  c gold",
"V  c #FFD005",
"C  c #FFD207",
"Z  c #FFD800",
"A  c #FFD900",
"S  c #FFDA00",
"D  c #FFDB00",
"F  c #FFDC00",
"G  c #FFDD00",
"H  c #FFDE00",
"J  c #FFDF00",
"K  c #FFD00A",
"L  c #FFD10A",
"P  c #FFC617",
"I  c #FFCB17",
"U  c #FFCD1C",
"Y  c #FFD516",
"T  c #FFE000",
"R  c #FFE100",
"E  c #FFE200",
"W  c #FFE300",
"Q  c #FFE700",
"!  c #FFE800",
"~  c #FFE900",
"^  c #FFEF00",
"/  c #FFCD22",
"(  c #FFCE25",
")  c #FFCF25",
"_  c #FFCE26",
"`  c #FFCE27",
"'  c #FFCF27",
"]  c #FFCA2C",
"[  c #FFD028",
"{  c #FFD12A",
"}  c #FFD729",
"|  c #FFD62C",
" . c #FFD134",
".. c #FFD234",
"X. c #FFD937",
"o. c #FFD43C",
"O. c #FFD839",
"+. c #FFDD43",
"@. c #FFDB47",
"#. c #FFD751",
"$. c #FFDA51",
"%. c #FFD853",
"&. c #FFDF51",
"*. c #FFDA5B",
"=. c #FFDF59",
"-. c #FFE053",
";. c #FFE159",
":. c #FFE15D",
">. c #FFE061",
",. c #FFE364",
"<. c #FFE46A",
"1. c #FFE26C",
"2. c #FFE36F",
"3. c #FFE170",
"4. c #FFE371",
"5. c #FFE372",
"6. c #FFE471",
"7. c #FFE473",
"8. c #FFE674",
"9. c #FFE477",
"0. c #FFE078",
"q. c #FFE57A",
"w. c #FFE77A",
"e. c #FFE77B",
"r. c #FFE77D",
"t. c #FFE67F",
"y. c #FFE87D",
"u. c #FFE87E",
"i. c #FFE682",
"p. c #FFE385",
"a. c #FFE786",
"s. c #FFE886",
"d. c #FFE590",
"f. c #FFE991",
"g. c #FFEB91",
"h. c #FFEA96",
"j. c #FFEC99",
"k. c #FFEC9B",
"l. c #FFF0AF",
"z. c #FFEEB0",
"x. c #FFF1B2",
"c. c #FFF2BA",
"v. c #FFF4C0",
"b. c #FFF5C6",
"n. c #FFF5C7",
"m. c #FFF5C8",
"M. c #FFF5C9",
"N. c #FFF6C8",
"B. c #FFF5CA",
"V. c #FFF5CB",
"C. c #FFF5CD",
"Z. c #FFF5D0",
"A. c #FFF7D4",
"S. c #FFF7D6",
"D. c #FFF6D8",
"F. c #FFF7DF",
"G. c #FFF8D9",
"H. c #FFF8DB",
"J. c #FFF9E1",
"K. c #FFF8E2",
"L. c #FFF9E3",
"P. c #FFF8E5",
"I. c #FFFBE8",
"U. c #FFFAE9",
"Y. c #FFFBE9",
"T. c #FFFBEA",
"R. c #FFFAEC",
"E. c #FFFBEF",
"W. c #FFFCF0",
"Q. c #FFFDF1",
"!. c #FFFCF2",
"~. c #FFFEF6",
"^. c #FFFFFE",
"/. c gray100",
"(. c None",
/* pixels */
"(.(.(.(.(.(.(.(.(.(.(.(.(.(.(.(.(.(.(.(.(.(.(.(.(.(.(.J T T J J J A J T J (.(.(.(.(.(.(.(.(.(.(.(.(.(.(.(.(.(.(.(.(.(.(.(.(.(.(.",
"(.(.(.(.(.(.(.(.(.(.(.(.(.(.(.(.(.(.(.(.(.(.(.J A A A A A A J A A J J A J A J A J (.(.(.(.(.(.(.(.(.(.(.(.(.(.(.(.(.(.(.(.(.(.(.",
"(.(.(.(.(.(.(.(.(.(.(.(.(.(.(.(.(.(.(.(.J M M A J A J A J A A J A A J A A J A J A A A J (.(.(.(.(.(.(.(.(.(.(.(.(.(.(.(.(.(.(.(.",
"(.(.(.(.(.(.(.(.(.(.(.(.(.(.(.(.(.(.T M A A A A A A J A A A J A J J A J J A J A A J A A M J (.(.(.(.(.(.(.(.(.(.(.(.(.(.(.(.(.(.",
"(.(.(.(.(.(.(.(.(.(.(.(.(.(.(.(.J M M A A A A J A A J A A J A J A A J A A A J J J A J A J M M A (.(.(.(.(.(.(.(.(.(.(.(.(.(.(.(.",
"(.(.(.(.(.(.(.(.(.(.(.(.(.(.J M A A A J A A A A A J A J A J A J J J J J J A J A A J A J A J J A M J (.(.(.(.(.(.(.(.(.(.(.(.(.(.",
"(.(.(.(.(.(.(.(.(.(.(.(.(.T M A A A A A A A A A J A A M M n n n n n M M A J A J J A A J J A A J A J A (.(.(.(.(.(.(.(.(.(.(.(.(.",
"(.(.(.(.(.(.(.(.(.(.(.(.J A M A A M A A A A J M n f f p p p p p p p p p p f f M A J J A A J J A J A A T (.(.(.(.(.(.(.(.(.(.(.(.",
"(.(.(.(.(.(.(.(.(.(.(.W M M A M A A M A A M f p p p p f n f f n n n n f f f p p p n M J J A A J J A A J ~ (.(.(.(.(.(.(.(.(.(.(.",
"(.(.(.(.(.(.(.(.(.(.A M A A A A M A J n p p p p f f n n f f n f f f n f n f n n f p p f M J J A A A J A A T (.(.(.(.(.(.(.(.(.(.",
"(.(.(.(.(.(.(.(.(.M A M M A M M A A f w p f n n f f n f n n n M M M n n n n f f n n f p p n A J J A A J A T J (.(.(.(.(.(.(.(.(.",
"(.(.(.(.(.(.(.(.A n M M M M M A n p w p f f p p f M M A A A J A A A A A A A M n f f n n f p f M J A A A J J f M (.(.(.(.(.(.(.(.",
"(.(.(.(.(.(.(.A M M n M A A A f 0 w f n f f f M A A A M A M A M A A A A A A J A M M f n n n p p n J A J A n p f T (.(.(.(.(.(.(.",
"(.(.(.(.(.(.T M M M M M M A f w p f f p f M A A A M M A A M A A A A A A A A A A A A A n f f n f w M J J n p p p p ~ (.(.(.(.(.(.",
"(.(.(.(.(.^ p M n M M M A p 0 p f f p n M A M A M A A M M A A A M M A A M M A A A A A A n f n n f w n n p p f p p w ~ (.(.(.(.(.",
"(.(.(.(.(.n M n n n M M f 0 p p w p n M M M M A M M M M M M M M M A M M M A A M A A A M A M f f M n 3 5 f f p p f p p (.(.(.(.(.",
"(.(.(.(.A n n n n n M f 0 p f p w M M n M M M M M M M M M M M M M M A M A A M A M A A M A A M n n p : * p f p p f p p n (.(.(.(.",
"(.(.(.(.M n n n n n n 0 w p w w n M n n M n n M n M M M M M M M M M M A M M M M M M A A A M A A 0 3 0 : : p f p p p p p (.(.(.(.",
"(.(.(.A f n f n n n w 0 p p w n M n n n n n M n M n n M M M M M M M M M M M M M M A A M M A A M 0 3 5 5 * 5 f p p p p w n (.(.(.",
"(.(.(.A n f n n M n 0 w p 0 f M M n n n n n M n n n M n n M M n M M M M M M M M M M M M M A n w f 0 3 0 5 : w f p p p p f (.(.(.",
"(.(.n f f n n f n w 0 p 0 p n n n n f n n n n n n n n n n M n n M M M M M M M M M M M M A n w p p p 0 3 5 : 3 f p p p p p f (.(.",
"(.(.f n n f n n f 0 w p 0 f M n n n n n n n n n n n n n M n M n M n M M n M M M M A M A n w p p p f w 3 5 5 : w f p p p p p (.(.",
"(.(.n f f n f n 0 5 w 0 p M n f f n n n n n n f n n n n n n n n n M n M n n M n M M A n w p p p p p p 0 3 5 : 5 f p p w p f (.(.",
"(.n n f n f n f 0 w w 0 f n f n n f n f n f n n n n f n n n n n n n n n n M n n M M n w p p w w w p f w 3 5 3 : w p p w p f p (.",
"(.f n f n f n w 0 p 0 w n f n n n n n f f n n n n n n n n n n n n n M n n n n n M n w w p p p p p p p p 3 3 5 * 0 f p p p p w (.",
"(.f f f f f n 0 5 w 0 p n f f f f f f n n f w p w p p n p p p p p p p f p f n M n 5 5 p p p p w w p w p 5 3 0 : 3 p w p w p p (.",
"(.p f n f f f 5 5 0 5 f n f f f n f n f f } q.r.r.,.C p -.y.y.q.q.y.<.Y r.;.n f w 0.4.w w w p p p p p p w 3 3 : : p p p w p M (.",
"f f f f f n f 5 0 0 0 f f n f n f f n f p V.^.^.^.^.D.| ^.^.^.^.^.^.^.x.^.^.V 0 ` ^.^.U 0 p w p w p w p p 3 3 3 : w p w p p w p ",
"f f f f p f p 5 0 5 w f f n f f f f f f f A.^.c.p.J.^.g.@.g.n.^.U.k.4.8.^.Q.w : [ ^.^.[ 0 w p w p p w p p 5 3 3 * 0 p p w p w p ",
"p p p f f f w 3 0 5 0 f f p f f f f f f p V.^.=.5 l.^.k.0 5 :.^.v.p 5 +.^.R.z 5 ..^.^._ 0 p w p w w p w p 5 * 3 : 5 p w p w p w ",
"f p p f f f w 3 0 3 w n f f f f f f f f p n.^.~.Q.^.^.O.w p 4.^.n.f p &.^.^.W.Y.Q.^.^._ 0 w w p p w w p p 5 : 5 * 5 p p w p w p ",
"f p p p f f w 5 0 3 w f f f f f f f f f f V.^.^.^.^.^.s.p w 4.^.V.f w $.^.^.^.^.^.^.^._ 5 p w p w p w w p 5 : 3 : 5 p w p w p w ",
"p p p p p f 0 5 0 3 w f f f f f f f f p p V.^.1.5 >.^.^.K 0 4.^.n.f 3 %.^.E.o.] *.^.^._ 0 w p w p p w p p 5 : 3 * 5 p p w p p w ",
"p p p p p f 0 3 0 3 w f p f p f f f f p p C.^.i.P 0.^.^.K 0 7.^.V.w 3 %.^.U.0 * I ^.^._ 0 w w w w w p w p 5 : 3 * 5 f w w w p w ",
"p p p p p p 0 3 5 3 0 f p p p p p p p p p J.^.^.^.^.^.h.w w r.^.F.0 3 *.^.^.l 3 ..^.^.[ 5 w p w w w w w w 5 * 3 : 5 p w p w w w ",
"p w p p p f w 3 5 : 5 f f p p p p p f p w 4.F.P.R.A.a.p p p O.P.d.0 0 / J.z.0 5 x D.Z.l w w w p p p w w p 3 : 3 * 0 w w w w w p ",
"p p w p p p w 3 5 3 3 w p p p p p f p p p p p f f p w p f f w l 0 w p 0 y 0 w w w w w 0 p w w p w w w w w 3 : : : w w w w w p w ",
"(.n w p p p w 5 5 5 : w p p p p p p p p p p p w w p p p f w w 0 w w w w 0 0 w w w 0 0 w w w w w w w w p 0 * 3 : : w w p w w n (.",
"(.p p w p w p 5 3 5 3 0 f p p p p p p p p p p p f p f p p 0 w w w w w p w w w p w w w w w w w w w w w p 5 * 3 * 3 w w w w w w (.",
"(.0 p p w p f 5 : 5 : 3 p w p p p p p p w p p p p p f w w w w w w w w w w w w w w p w w w w w w w w w p : : : * 5 w w w w w 0 (.",
"(.w f w w w p w 3 : 3 * w f p w w p w p p w p p p p w w w w w w w w w w w w w w w w w w w w w w w w p 0 @ 3 : * 0 w w 0 w p w (.",
"(.(.p w w p w p 5 : 3 * 3 p p p p w p w p p p p f w w w 0 w w w w w w w w 0 w w w 0 w w 0 w w w w w w : * 3 * 3 p w 0 w w p (.(.",
"(.(.w w p w p p 0 : 3 : @ w p w p p w p w p p p w 0 0 w w 0 w w 0 w w w w w w w 0 w 0 w w w w w w p 0 @ : : * 5 w w 0 w w w (.(.",
"(.(.p w w w w w p 3 : 5 * : p p w w p p p w p w w 0 w 0 w w w 0 w w w w 0 w w w w w w 0 w w w 0 w w : @ 3 * 3 w w w w 0 w w (.(.",
"(.(.(.p w w w w p 0 : 3 3 @ 5 f p w w p p p w 0 w 0 w w w 0 0 0 0 0 w 0 w 0 w 0 0 w w 0 w 0 w w p 3 @ : : * 0 w 0 0 w 0 p (.(.(.",
"(.(.(.f 5 w w w w w 3 * 3 * @ w p w w w w w 0 0 0 0 0 0 0 0 0 0 0 w 0 0 w 0 0 0 0 0 0 0 0 w w w 5 + * 3 @ 3 w 0 w 0 0 3 n (.(.(.",
"(.(.(.(.w w w w w p w : : 3 * @ w p w p w 0 0 w 0 w 0 0 w 0 0 0 0 0 0 w 0 w 0 0 w 0 0 0 0 0 w 0 @ * : * * w w 0 0 0 0 p (.(.(.(.",
"(.(.(.(.n 5 w w w w w 0 * : 3 @ @ w p w 0 0 0 0 0 0 0 0 0 0 0 0 0 0 0 0 0 0 0 0 0 0 0 0 0 p 0 @ @ : : @ 0 w 0 0 0 0 5 M (.(.(.(.",
"(.(.(.(.(.n 0 0 0 w 0 w 5 * : 3 @ @ 0 p 0 0 0 0 0 0 0 0 0 0 0 0 0 0 0 0 0 0 0 0 0 0 0 0 w 5 + @ : * @ 5 w 0 0 0 5 0 n (.(.(.(.(.",
"(.(.(.(.(.W : 0 0 0 w 0 w 3 * : 3 @ . : w 0 0 0 0 0 0 0 0 0 0 0 5 0 0 0 0 0 5 0 0 0 w p 3 + @ : * * 3 w 0 0 0 0 0 3 W (.(.(.(.(.",
"(.(.(.(.(.(.J 5 0 0 0 0 w w 3 * : : @ . * 5 w w 0 0 0 0 0 0 0 0 0 0 0 0 0 0 0 0 w w 5 @ . @ : : @ 3 w w 0 5 0 0 5 J (.(.(.(.(.(.",
"(.(.(.(.(.(.(.f 0 0 0 0 w 0 w 3 * * : * + . : 5 w p 0 0 0 0 0 0 0 0 0 0 0 0 p w 5 * . + : : * @ 5 w 0 0 0 0 0 0 p (.(.(.(.(.(.(.",
"(.(.(.(.(.(.(.(.p 5 0 0 0 0 0 0 5 * * : : @ . + @ : 5 0 0 w w w w w w w 0 5 : @ + + @ : : @ * 5 0 0 0 0 5 0 5 p (.(.(.(.(.(.(.(.",
"(.(.(.(.(.(.(.(.(.3 0 0 0 0 5 0 w 5 : * * * * @ + . . + @ : : : : : * * @ . . + @ : : * * : 0 w 5 0 5 0 0 0 5 (.(.(.(.(.(.(.(.(.",
"(.(.(.(.(.(.(.(.(.(.w 5 5 0 0 0 0 0 w 5 : * @ : * : * @ + + + . . + + + @ * * : * * @ : 5 w 0 0 0 0 0 0 5 0 (.(.(.(.(.(.(.(.(.(.",
"(.(.(.(.(.(.(.(.(.(.(.w 0 0 0 5 0 5 0 w 0 5 3 * * @ * * * * * * * * * * * * * * * : 5 w 0 0 5 0 5 0 5 0 p (.(.(.(.(.(.(.(.(.(.(.",
"(.(.(.(.(.(.(.(.(.(.(.(.p 5 5 0 5 0 5 5 0 0 0 5 3 : * * @ * * * @ @ @ * * * : 3 5 0 w 0 0 5 0 5 0 5 5 n (.(.(.(.(.(.(.(.(.(.(.(.",
"(.(.(.(.(.(.(.(.(.(.(.(.(.n 5 5 0 0 0 0 0 5 0 0 0 0 0 5 5 : 3 : 3 3 3 3 5 0 0 0 0 5 0 5 5 0 5 0 5 3 n (.(.(.(.(.(.(.(.(.(.(.(.(.",
"(.(.(.(.(.(.(.(.(.(.(.(.(.(.n n 5 5 5 0 5 0 5 5 5 0 0 0 0 w 0 0 0 0 0 0 0 0 5 0 5 0 5 0 0 0 5 5 n f (.(.(.(.(.(.(.(.(.(.(.(.(.(.",
"(.(.(.(.(.(.(.(.(.(.(.(.(.(.(.(.w w 5 5 0 5 0 5 5 5 5 5 0 5 0 5 5 5 5 0 5 5 5 5 0 5 0 5 5 5 w w (.(.(.(.(.(.(.(.(.(.(.(.(.(.(.(.",
"(.(.(.(.(.(.(.(.(.(.(.(.(.(.(.(.(.(.p 0 3 0 5 0 0 5 5 0 0 5 0 5 0 5 5 5 0 5 5 0 5 5 0 3 0 p (.(.(.(.(.(.(.(.(.(.(.(.(.(.(.(.(.(.",
"(.(.(.(.(.(.(.(.(.(.(.(.(.(.(.(.(.(.(.(.p 5 3 w 0 5 5 5 5 5 5 0 5 5 0 5 5 0 5 0 w 3 0 p (.(.(.(.(.(.(.(.(.(.(.(.(.(.(.(.(.(.(.(.",
"(.(.(.(.(.(.(.(.(.(.(.(.(.(.(.(.(.(.(.(.(.(.(.5 5 5 0 3 5 5 0 5 0 5 5 0 3 0 5 3 5 (.(.(.(.(.(.(.(.(.(.(.(.(.(.(.(.(.(.(.(.(.(.(.",
"(.(.(.(.(.(.(.(.(.(.(.(.(.(.(.(.(.(.(.(.(.(.(.(.(.(.(.w 0 5 5 5 5 0 5 0 w (.(.(.(.(.(.(.(.(.(.(.(.(.(.(.(.(.(.(.(.(.(.(.(.(.(.(."
};
